<svg width="12" height="13" viewBox="0 0 12 13" fill="none" xmlns="http://www.w3.org/2000/svg">
<path d="M8.27246 2.96875C8.12142 3.09375 7.95736 3.19792 7.78027 3.28125C7.60319 3.35938 7.40527 3.39844 7.18652 3.39844C6.96777 3.39844 6.75684 3.36198 6.55371 3.28906C6.35059 3.21615 6.1735 3.11458 6.02246 2.98438C5.69434 2.70312 5.53027 2.34375 5.53027 1.90625C5.53027 1.23438 6.09277 0.734375 7.21777 0.40625C7.59798 0.291667 7.91048 0.234375 8.15527 0.234375C8.40007 0.234375 8.58236 0.263021 8.70215 0.320312C8.82715 0.372396 8.92871 0.442708 9.00684 0.53125C9.16309 0.708333 9.24121 0.890625 9.24121 1.07812C9.24121 1.26042 9.21777 1.42708 9.1709 1.57812C9.12923 1.72917 9.06673 1.88542 8.9834 2.04688C8.90007 2.20833 8.7985 2.36979 8.67871 2.53125C8.55892 2.69271 8.4235 2.83854 8.27246 2.96875ZM6.30371 11.5703C5.90788 11.7734 5.52246 11.9349 5.14746 12.0547C4.77246 12.1797 4.40267 12.2422 4.03809 12.2422C3.67871 12.2422 3.30371 12.1562 2.91309 11.9844C2.52767 11.8073 2.18392 11.5729 1.88184 11.2812C1.20996 10.6302 0.874023 9.90625 0.874023 9.10938C0.874023 8.375 1.09277 7.63021 1.53027 6.875C1.93132 6.19271 2.44173 5.61979 3.06152 5.15625C3.68132 4.69271 4.25684 4.46094 4.78809 4.46094C5.5485 4.46094 5.95475 4.67448 6.00684 5.10156C6.02246 5.23177 6.03027 5.38281 6.03027 5.55469C6.03027 5.72656 5.98861 5.92448 5.90527 6.14844C5.82715 6.36719 5.72298 6.58854 5.59277 6.8125C5.46777 7.03125 5.32715 7.2474 5.1709 7.46094C5.01986 7.66927 4.87402 7.85938 4.7334 8.03125C4.46257 8.35938 4.24642 8.59635 4.08496 8.74219C4.08496 8.91927 4.21777 9.10156 4.4834 9.28906C4.7334 9.46615 4.94434 9.55469 5.11621 9.55469C5.29329 9.55469 5.49902 9.51302 5.7334 9.42969C5.97298 9.34635 6.21777 9.23438 6.46777 9.09375C6.72298 8.95312 6.98079 8.79167 7.24121 8.60938C7.50684 8.42708 7.76725 8.23958 8.02246 8.04688L9.45215 6.92969C10.0199 6.51823 10.4808 6.3125 10.835 6.3125C10.9756 6.3125 11.0824 6.36458 11.1553 6.46875C11.2334 6.56771 11.2725 6.6849 11.2725 6.82031C11.2725 6.95573 11.2048 7.14323 11.0693 7.38281C10.9339 7.61719 10.7464 7.8776 10.5068 8.16406C10.2725 8.45052 9.99642 8.75 9.67871 9.0625C9.361 9.375 9.01725 9.68229 8.64746 9.98438C8.27767 10.2865 7.89225 10.5755 7.49121 10.8516C7.09538 11.1224 6.69954 11.362 6.30371 11.5703Z" fill="#F08E45"/>
</svg>
