<svg width="228" height="96" viewBox="0 0 228 96" fill="none" xmlns="http://www.w3.org/2000/svg">
<g filter="url(#filter0_di_130_3949)">
<path fill-rule="evenodd" clip-rule="evenodd" d="M16.7721 35.3953C8.6137 36.8338 3.16617 44.6137 4.60472 52.7721L8.59863 75.4227C10.0372 83.5811 17.8171 89.0286 25.9755 87.5901L211.119 54.9442C219.278 53.5057 224.725 45.7258 223.287 37.5674L219.293 14.9168C217.854 6.7584 210.074 1.31087 201.916 2.74942L16.7721 35.3953ZM21.2557 41.3319C15.8168 42.2909 12.1851 47.4775 13.1441 52.9165L16.5737 72.3664C17.5327 77.8054 22.7193 81.437 28.1582 80.478L206.636 49.0076C212.075 48.0486 215.706 42.862 214.747 37.4231L211.318 17.9731C210.359 12.5342 205.172 8.90247 199.733 9.8615L21.2557 41.3319Z" fill="#C42F2F" fill-opacity="0.79" shape-rendering="crispEdges"/>
</g>
<g filter="url(#filter1_i_130_3949)">
<path d="M69.8422 49.0755L63.1612 50.2535C62.6465 50.3443 62.2934 50.3686 62.1018 50.3266C61.9103 50.2845 61.8006 50.1847 61.7728 50.0272L60.0141 40.053C59.966 39.7799 60.0525 39.5643 60.2737 39.4061C60.5055 39.2461 60.9417 39.1096 61.5825 38.9966L67.9168 37.8797C68.1374 37.8408 68.3125 38.189 68.4422 38.9244C68.57 39.6492 68.6209 40.2143 68.5949 40.6196C68.567 41.0144 68.4743 41.2258 68.3167 41.2535C67.6339 41.3739 66.4716 41.5085 64.8298 41.6572L65.016 42.7129C66.5596 42.3757 67.5677 42.1655 68.0404 42.0821C68.324 42.0321 68.5242 42.338 68.6409 42.9998C68.7576 43.6616 68.7887 44.176 68.7343 44.543C68.6885 44.8977 68.5711 45.0917 68.382 45.125L65.5189 45.5649L65.6967 46.5733C67.5004 46.1145 68.7489 45.8239 69.4422 45.7017C69.6628 45.6628 69.838 46.011 69.9676 46.7463C70.0973 47.4816 70.1482 48.0467 70.1203 48.4415C70.0924 48.8364 69.9997 49.0477 69.8422 49.0755ZM75.7863 47.5562C75.8104 47.6928 75.5042 47.8605 74.8677 48.0594C74.2417 48.2564 73.6084 48.4114 72.9676 48.5244C72.3268 48.6374 71.9106 48.6728 71.7191 48.6308C71.5275 48.5888 71.4179 48.4889 71.3901 48.3314L69.6842 38.6566C69.6379 38.394 69.8946 38.0996 70.4545 37.7734C71.0249 37.4454 71.6935 37.2138 72.4603 37.0786C72.7334 37.0304 72.9401 37.0048 73.0804 37.0017C73.4468 36.9913 73.7388 37.1727 73.9562 37.5459L76.1857 41.3445L76.2487 41.3334L75.593 37.6147C75.5467 37.3521 75.8035 37.0577 76.3634 36.7316C76.9232 36.4054 77.5866 36.1747 78.3534 36.0395C79.0152 35.9228 79.4576 35.9747 79.6806 36.1954C79.8382 36.3517 79.9299 36.5034 79.9559 36.6505L81.6951 46.5143C81.7192 46.6509 81.413 46.8186 80.7765 47.0175C80.1506 47.2145 79.4489 47.3815 78.6716 47.5186C77.9047 47.6538 77.467 47.6281 77.3582 47.4415L75.2094 43.8237L75.1306 43.8376L75.7863 47.5562ZM94.4561 44.6217C94.0526 44.7903 93.633 44.9293 93.1974 45.0386C92.7741 45.1565 92.3523 45.2525 91.9322 45.3266C91.5225 45.3989 91.2002 45.4449 90.9654 45.4646C90.7411 45.4825 90.4377 45.4818 90.0553 45.4626C89.6728 45.4434 89.3163 45.3871 88.9857 45.2938C88.6551 45.2004 88.2915 45.0425 87.8948 44.82C87.5087 44.5957 87.1658 44.3095 86.8662 43.9616C86.1711 43.1527 85.6977 42.0339 85.4458 40.6053C85.2772 39.6493 85.2752 38.7778 85.4396 37.9906C85.6146 37.2016 85.877 36.5704 86.2268 36.0971C86.5871 35.622 87.0191 35.2155 87.5227 34.8776C88.3347 34.3228 89.1872 33.9667 90.08 33.8093C91.3616 33.5833 92.2993 33.5263 92.8931 33.6382C93.1619 33.6883 93.4136 33.7955 93.6484 33.9599C93.8832 34.1243 94.0339 34.3956 94.1006 34.7738C94.1673 35.1519 94.157 35.6466 94.0698 36.2577C93.9931 36.8669 93.7814 37.2021 93.4348 37.2632C93.3297 37.2817 92.9262 37.2662 92.2243 37.2167C91.5224 37.1672 91.0506 37.1637 90.809 37.2063C90.4413 37.2711 90.1623 37.5315 89.972 37.9875C89.7921 38.4417 89.7688 39.0469 89.9022 39.8032C90.0355 40.5596 90.2496 41.1284 90.5443 41.5097C90.8494 41.8891 91.1859 42.0464 91.5535 41.9816C91.8162 41.9353 92.2703 41.7469 92.9161 41.4164C93.5705 41.0735 93.9555 40.8919 94.071 40.8715C94.3967 40.8141 94.7016 41.0691 94.9857 41.6363C95.2804 42.2017 95.4601 42.6683 95.525 43.036C95.5898 43.4036 95.5261 43.7181 95.3339 43.9795C95.1503 44.2285 94.8577 44.4425 94.4561 44.6217ZM102.273 43.5033C101.401 43.6571 100.636 43.7107 99.9777 43.6643C99.3283 43.6055 98.7039 43.4123 98.1046 43.0847C96.8973 42.442 96.0862 40.944 95.6713 38.591C95.4972 37.6036 95.4871 36.7172 95.6411 35.9319C95.8056 35.1447 96.1072 34.4904 96.546 33.9689C97.4063 32.9507 98.64 32.2999 100.247 32.0165C101.077 31.8702 101.81 31.8169 102.445 31.8565C103.091 31.8943 103.721 32.0593 104.336 32.3517C105.579 32.9556 106.399 34.3815 106.796 36.6295C107.151 38.6464 106.914 40.2207 106.085 41.3526C105.256 42.4845 103.985 43.2014 102.273 43.5033ZM101.278 40.9006C101.43 41.0254 101.616 41.0684 101.836 41.0295C102.057 40.9906 102.217 40.8865 102.318 40.7172C102.416 40.5374 102.463 40.1933 102.46 39.6847C102.456 39.1657 102.374 38.4597 102.217 37.5668C102.059 36.6739 101.896 35.9933 101.727 35.5249C101.558 35.0565 101.397 34.7599 101.245 34.635C101.093 34.5102 100.907 34.4672 100.686 34.5061C100.466 34.545 100.305 34.6491 100.205 34.8184C100.105 34.9877 100.056 35.3214 100.057 35.8194C100.058 36.3174 100.137 37.0129 100.295 37.9058C100.452 38.7987 100.617 39.4898 100.79 39.9792C100.961 40.4581 101.124 40.7652 101.278 40.9006ZM118.236 36.0095C118.502 37.5222 118.266 38.7336 117.528 39.6436C116.798 40.5414 115.609 41.1356 113.959 41.4264C112.321 41.7154 110.994 41.5647 109.98 40.9745C108.965 40.3737 108.323 39.317 108.057 37.8044L107.037 32.0216C106.991 31.759 107.243 31.4707 107.794 31.1569C108.356 30.8413 109.031 30.614 109.819 30.475C110.449 30.3639 110.88 30.4125 111.112 30.6207C111.282 30.7857 111.379 30.9365 111.403 31.0731L112.231 35.7687C112.44 36.9557 112.621 37.7361 112.773 38.11C112.935 38.4715 113.162 38.6263 113.456 38.5744C113.751 38.5225 113.902 38.3063 113.911 37.9257C113.928 37.5327 113.829 36.7269 113.614 35.5084L112.82 31.0019C112.773 30.7393 113.026 30.4511 113.577 30.1373C114.139 29.8216 114.808 29.5952 115.586 29.4582C116.248 29.3415 116.689 29.3882 116.91 29.5983C117.07 29.7652 117.161 29.9169 117.185 30.0534L118.236 36.0095ZM124.596 38.9497C124.62 39.0863 124.319 39.2531 123.693 39.4501C123.067 39.6471 122.429 39.803 121.777 39.9179C121.137 40.0309 120.715 40.0673 120.513 40.0271C120.322 39.985 120.212 39.8852 120.184 39.7277L118.398 29.596C118.35 29.3228 118.657 29.0683 119.319 28.8324C119.992 28.5946 120.854 28.383 121.904 28.1978C122.955 28.0126 123.633 27.8984 123.94 27.8552C124.255 27.7996 124.625 27.7505 125.051 27.7079C125.477 27.6654 125.817 27.6595 126.071 27.6905C126.337 27.7196 126.626 27.7659 126.941 27.8296C127.266 27.8915 127.529 28.0021 127.73 28.1616C127.93 28.3105 128.131 28.4971 128.333 28.7215C128.696 29.1231 128.952 29.7442 129.1 30.5845C129.246 31.4144 129.229 32.1432 129.047 32.771C128.874 33.3864 128.582 33.8819 128.172 34.2575C129.715 35.9459 130.532 37.0474 130.623 37.5621C130.714 38.0768 129.724 38.5167 127.655 38.8815C127.056 38.9871 126.636 39.034 126.396 39.0223C126.156 39.0105 125.988 38.9209 125.894 38.7534L124.297 35.6881L124.027 35.7195L124.596 38.9497ZM123.599 33.293L124.008 33.2207C124.618 33.1133 124.839 32.5869 124.672 31.6415C124.587 31.1583 124.443 30.8317 124.24 30.6617C124.047 30.4899 123.845 30.4225 123.635 30.4596L123.115 30.5513L123.599 33.293ZM139.448 36.1198C139.173 36.4065 138.766 36.6786 138.227 36.9362C137.696 37.1814 136.984 37.3828 136.091 37.5402C135.209 37.6958 134.355 37.7704 133.531 37.7642C132.707 37.7579 132.106 37.696 131.728 37.5785C131.349 37.4611 131.146 37.3183 131.116 37.1502C131.012 36.562 130.989 35.9379 131.046 35.278C131.101 34.6076 131.244 34.252 131.475 34.2112C131.517 34.2038 131.978 34.2688 132.858 34.4061C133.738 34.5434 134.388 34.575 134.808 34.5009C135.228 34.4268 135.494 34.3366 135.605 34.2303C135.714 34.1136 135.754 33.9712 135.725 33.8031C135.695 33.635 135.554 33.5083 135.3 33.423C135.045 33.3272 134.736 33.2626 134.372 33.2292C134.007 33.1852 133.603 33.1049 133.16 32.988C132.728 32.8693 132.318 32.725 131.93 32.555C131.543 32.385 131.197 32.1103 130.891 31.7309C130.584 31.3409 130.383 30.8729 130.286 30.3266C129.875 27.9946 131.061 26.5832 133.845 26.0923C134.885 25.9089 135.795 25.8189 136.576 25.822C137.354 25.8147 137.911 25.8683 138.245 25.9826C138.588 26.0846 138.773 26.2144 138.801 26.372C138.897 26.9182 138.87 27.5296 138.718 28.2062C138.577 28.8809 138.386 29.2396 138.144 29.2822C138.102 29.2896 137.957 29.2664 137.71 29.2126C136.963 29.0303 136.358 28.9798 135.896 29.0613C135.444 29.141 135.142 29.2376 134.988 29.3513C134.846 29.4631 134.79 29.6083 134.822 29.7869C134.851 29.955 134.992 30.0764 135.243 30.1512C135.493 30.2155 135.794 30.2653 136.147 30.3006C136.508 30.3235 136.905 30.3943 137.338 30.513C137.779 30.6193 138.195 30.768 138.586 30.959C138.976 31.1394 139.326 31.4352 139.636 31.8461C139.947 32.2571 140.155 32.7619 140.261 33.3607C140.372 33.991 140.31 34.5922 140.075 35.1643C139.931 35.5146 139.722 35.8331 139.448 36.1198ZM150.419 34.8676L146.701 35.5233C146.186 35.614 145.833 35.6384 145.641 35.5963C145.45 35.5543 145.339 35.4492 145.309 35.2812L143.556 25.3385C143.508 25.0654 143.589 24.8507 143.8 24.6944C144.009 24.5276 144.397 24.3942 144.964 24.2942L148.51 23.669C150.527 23.3134 151.989 23.4672 152.896 24.1303C153.802 24.7829 154.439 26.1545 154.808 28.2449C155.177 30.3353 155.037 31.8763 154.388 32.868C153.738 33.8491 152.415 34.5156 150.419 34.8676ZM148.735 26.0502C148.482 26.0946 148.318 26.1453 148.241 26.2021L149.364 32.5679L149.974 32.5253C150.289 32.4698 150.481 32.176 150.549 31.644C150.629 31.1101 150.559 30.2234 150.34 28.9839C150.122 27.7443 149.891 26.9293 149.649 26.5387C149.407 26.1482 149.102 25.9853 148.735 26.0502ZM164.907 32.313L158.226 33.491C157.711 33.5818 157.358 33.6062 157.167 33.5641C156.975 33.5221 156.865 33.4223 156.838 33.2647L155.079 23.2906C155.031 23.0174 155.117 22.8018 155.338 22.6436C155.57 22.4836 156.006 22.3471 156.647 22.2342L162.982 21.1173C163.202 21.0784 163.377 21.4266 163.507 22.1619C163.635 22.8867 163.686 23.4518 163.66 23.8571C163.632 24.252 163.539 24.4633 163.381 24.4911C162.699 24.6115 161.536 24.746 159.895 24.8947L160.081 25.9504C161.624 25.6132 162.632 25.403 163.105 25.3196C163.389 25.2696 163.589 25.5755 163.706 26.2373C163.822 26.8991 163.853 27.4135 163.799 27.7805C163.753 28.1352 163.636 28.3292 163.447 28.3625L160.584 28.8024L160.761 29.8108C162.565 29.352 163.814 29.0614 164.507 28.9392C164.728 28.9003 164.903 29.2485 165.032 29.9838C165.162 30.7192 165.213 31.2842 165.185 31.6791C165.157 32.0739 165.064 32.2852 164.907 32.313ZM26.8868 74.4562C26.9108 74.5928 26.6099 74.7595 25.9839 74.9566C25.358 75.1536 24.7193 75.3095 24.0681 75.4244C23.4273 75.5374 23.0059 75.5738 22.8038 75.5336C22.6123 75.4915 22.5026 75.3917 22.4748 75.2341L20.6883 65.1024C20.6402 64.8293 20.9473 64.5748 21.6097 64.3388C22.2827 64.101 23.1444 63.8895 24.1948 63.7043C25.2453 63.5191 25.9238 63.4049 26.2302 63.3616C26.5454 63.3061 26.9158 63.257 27.3416 63.2144C27.7673 63.1719 28.1075 63.166 28.362 63.197C28.6271 63.226 28.9169 63.2724 29.2314 63.3361C29.5564 63.398 29.8196 63.5086 30.021 63.668C30.2206 63.817 30.4214 64.0036 30.6234 64.2279C30.9867 64.6296 31.2424 65.2507 31.3906 66.091C31.5369 66.9209 31.5192 67.6497 31.3375 68.2775C31.1644 68.8929 30.8726 69.3884 30.4623 69.764C32.0056 71.4524 32.8226 72.5539 32.9134 73.0686C33.0041 73.5833 32.0148 74.0231 29.9454 74.388C29.3466 74.4936 28.9271 74.5405 28.6867 74.5287C28.4463 74.517 28.2789 74.4273 28.1844 74.2599L26.5878 71.1946L26.3172 71.226L26.8868 74.4562ZM25.8893 68.7995L26.299 68.7272C26.9083 68.6198 27.1296 68.0934 26.9629 67.148C26.8777 66.6647 26.7334 66.3382 26.5301 66.1682C26.3374 65.9964 26.136 65.929 25.9259 65.9661L25.4059 66.0578L25.8893 68.7995ZM41.9021 72.2798L35.2211 73.4578C34.7064 73.5485 34.3533 73.5729 34.1617 73.5309C33.9702 73.4888 33.8605 73.389 33.8327 73.2314L32.074 63.2573C32.0259 62.9842 32.1124 62.7685 32.3336 62.6104C32.5654 62.4504 33.0016 62.3139 33.6424 62.2009L39.9767 61.084C40.1973 61.0451 40.3724 61.3933 40.5021 62.1286C40.6299 62.8535 40.6808 63.4185 40.6548 63.8239C40.6269 64.2187 40.5342 64.43 40.3766 64.4578C39.6938 64.5782 38.5315 64.7127 36.8897 64.8614L37.0759 65.9171C38.6195 65.58 39.6276 65.3697 40.1003 65.2864C40.3839 65.2364 40.5841 65.5423 40.7008 66.204C40.8175 66.8658 40.8486 67.3802 40.7942 67.7473C40.7484 68.1019 40.631 68.296 40.4419 68.3293L37.5788 68.7691L37.7566 69.7776C39.5603 69.3187 40.8088 69.0282 41.5021 68.9059C41.7227 68.867 41.8979 69.2153 42.0275 69.9506C42.1572 70.6859 42.2081 71.251 42.1802 71.6458C42.1524 72.0407 42.0596 72.252 41.9021 72.2798ZM37.2466 58.316C37.4882 58.2734 37.765 58.4304 38.077 58.787C38.3995 59.1417 38.6126 59.6132 38.7163 60.2015C38.7441 60.359 38.3121 60.5814 37.4205 60.8686C36.5374 61.1435 35.7965 61.3337 35.1978 61.4392C34.9982 61.4744 34.7921 61.3808 34.5796 61.1583C34.3776 60.934 34.2479 60.659 34.1904 60.3334C34.1312 59.9972 34.4633 59.6083 35.187 59.1666C35.9193 58.7125 36.6058 58.429 37.2466 58.316ZM47.7359 70.4225C47.7686 70.7308 47.6429 70.9696 47.3586 71.1389C47.0849 71.3063 46.5593 71.4586 45.782 71.5956C45.0046 71.7327 44.3413 71.7792 43.792 71.7353C43.2513 71.679 42.9616 71.5405 42.9227 71.3199C42.8782 71.0678 43.0623 69.3782 43.4748 66.2511C43.8856 63.1134 44.1194 61.3067 44.1763 60.8309C44.2047 60.6851 44.6055 60.5007 45.3785 60.2777C46.1602 60.0424 47.0027 59.8451 47.9061 59.6858C48.82 59.5247 49.352 59.5933 49.5021 59.8918C52.6507 66.1386 54.2343 69.3146 54.2528 69.4196C54.2713 69.5247 54.2268 69.6408 54.1193 69.7681C53.8659 70.0511 53.3033 70.2694 52.4314 70.4231C50.5721 70.751 49.5825 70.698 49.4627 70.2642L49.1718 69.2595L47.6591 69.5262L47.7359 70.4225ZM48.313 66.324L47.5766 63.5294L47.2299 63.5906L47.4621 66.4741L48.313 66.324ZM59.4616 68.7124C59.4857 68.8489 59.1848 69.0157 58.5588 69.2127C57.9328 69.4098 57.2995 69.5648 56.6587 69.6778C56.0179 69.7908 55.6017 69.8262 55.4102 69.7842C55.2186 69.7421 55.109 69.6423 55.0812 69.4848L53.2947 59.3531C53.2058 58.8488 54.674 58.33 57.6993 57.7966C59.5271 57.4743 60.7574 57.3873 61.3901 57.5357C62.1563 57.7039 62.7099 58.0178 63.0509 58.4776C63.5019 59.0696 63.8172 59.8751 63.9969 60.8941C64.2432 62.2912 64.1804 63.3475 63.8083 64.0629C63.5431 64.5863 63.2493 64.9468 62.9267 65.1445C62.6041 65.3421 62.3328 65.4929 62.1129 65.5967C61.9015 65.6881 61.6306 65.7792 61.3 65.87C60.8452 65.9935 60.2186 66.1256 59.4202 66.2664L59.0393 66.3173L59.4616 68.7124ZM58.5939 63.6989L58.972 63.6322C59.1716 63.597 59.3245 63.543 59.4308 63.4701C59.5353 63.3867 59.6073 63.2115 59.6469 62.9446C59.6951 62.6653 59.6785 62.2945 59.597 61.8323C59.5136 61.3596 59.3981 61.0117 59.2505 60.7887C59.1115 60.5532 58.9858 60.4237 58.8733 60.4003C58.7695 60.3644 58.6493 60.3585 58.5128 60.3826L58.0243 60.4687L58.5939 63.6989ZM70.6338 66.7424C70.6578 66.879 70.3569 67.0458 69.7309 67.2428C69.105 67.4398 68.4664 67.5958 67.8151 67.7106C67.1743 67.8236 66.7529 67.86 66.5508 67.8198C66.3593 67.7777 66.2496 67.6779 66.2218 67.5204L64.4353 57.3887C64.3872 57.1155 64.6943 56.861 65.3567 56.6251C66.0297 56.3873 66.8914 56.1757 67.9418 55.9905C68.9923 55.8053 69.6708 55.6911 69.9772 55.6479C70.2924 55.5923 70.6628 55.5432 71.0886 55.5007C71.5143 55.4581 71.8545 55.4523 72.109 55.4832C72.3741 55.5123 72.6639 55.5586 72.9784 55.6223C73.3034 55.6842 73.5666 55.7948 73.768 55.9543C73.9676 56.1032 74.1684 56.2898 74.3704 56.5142C74.7337 56.9159 74.9894 57.5369 75.1376 58.3773C75.2839 59.2071 75.2662 59.9359 75.0845 60.5637C74.9114 61.1791 74.6196 61.6746 74.2093 62.0502C75.7526 63.7386 76.5696 64.8401 76.6604 65.3548C76.7511 65.8696 75.7618 66.3094 73.6924 66.6743C73.0936 66.7798 72.6741 66.8267 72.4337 66.815C72.1933 66.8032 72.0259 66.7136 71.9314 66.5461L70.3348 63.4808L70.0642 63.5122L70.6338 66.7424ZM69.6363 61.0857L70.046 61.0134C70.6553 60.906 70.8766 60.3796 70.7099 59.4342C70.6247 58.951 70.4804 58.6244 70.2772 58.4544C70.0844 58.2826 69.883 58.2152 69.6729 58.2523L69.1529 58.344L69.6363 61.0857ZM82.9324 65.1912C82.0605 65.345 81.2955 65.3986 80.6375 65.3522C79.9881 65.2934 79.3637 65.1002 78.7644 64.7726C77.5571 64.1298 76.746 62.6319 76.3311 60.2789C76.157 59.2915 76.1469 58.4051 76.3009 57.6197C76.4653 56.8326 76.767 56.1782 77.2057 55.6568C78.066 54.6386 79.2997 53.9878 80.9069 53.7044C81.7368 53.5581 82.4693 53.5047 83.1045 53.5444C83.7502 53.5822 84.3805 53.7472 84.9953 54.0396C86.239 54.6435 87.0591 56.0694 87.4555 58.3174C87.8111 60.3343 87.5742 61.9086 86.7448 63.0405C85.9154 64.1724 84.6446 64.8893 82.9324 65.1912ZM81.9373 62.5885C82.0893 62.7133 82.2756 62.7563 82.4962 62.7174C82.7168 62.6785 82.8771 62.5744 82.9773 62.4051C83.0755 62.2253 83.1232 61.8811 83.1201 61.3726C83.1153 60.8536 83.0341 60.1476 82.8767 59.2547C82.7192 58.3618 82.5559 57.6812 82.3866 57.2128C82.2174 56.7444 82.0568 56.4478 81.9048 56.3229C81.7528 56.1981 81.5665 56.1551 81.3459 56.194C81.1253 56.2329 80.965 56.337 80.8648 56.5063C80.7647 56.6756 80.7152 57.0093 80.7164 57.5073C80.7176 58.0053 80.7969 58.7008 80.9543 59.5937C81.1118 60.4866 81.277 61.1777 81.4499 61.6671C81.621 62.146 81.7835 62.4531 81.9373 62.5885ZM86.7664 53.9872C86.7442 53.8612 86.8548 53.69 87.0983 53.4738C87.34 53.2471 87.6956 53.0219 88.1652 52.7983C88.6454 52.5728 89.1796 52.4082 89.7678 52.3045C90.3561 52.2008 90.8016 52.2088 91.1044 52.3288C91.4071 52.4487 91.5866 52.6066 91.6428 52.8025L93.2056 58.4407L93.4262 58.4018L92.9284 52.722C92.908 52.4223 93.2244 52.1282 93.8776 51.8398C94.5307 51.5513 95.1515 51.3552 95.7397 51.2515C96.328 51.1477 96.7732 51.1234 97.0753 51.1784C97.3756 51.223 97.5718 51.2913 97.6638 51.3834C97.7664 51.4736 97.826 51.566 97.8427 51.6605C97.8575 51.7445 97.8223 52.0053 97.7369 52.4428C97.6602 52.8679 97.5786 53.3263 97.492 53.8182C97.1946 55.387 96.7194 58.1894 96.0663 62.2255C96.0082 62.5715 95.1335 62.8936 93.4422 63.1918C92.917 63.2844 92.5639 63.3088 92.3828 63.2649C92.2018 63.221 92.064 63.1153 91.9695 62.9479C91.0348 61.2714 89.9368 59.3746 88.6753 57.2574C87.4138 55.1403 86.7776 54.0503 86.7664 53.9872ZM104.792 60.8006C104.813 60.9161 104.509 61.0671 103.881 61.2537C103.252 61.4297 102.611 61.5751 101.96 61.6899C101.319 61.8029 100.905 61.8489 100.717 61.8279C100.527 61.7963 100.42 61.7123 100.396 61.5757L98.6681 51.7749C98.6273 51.5438 98.8922 51.2643 99.4625 50.9362C100.031 50.5977 100.693 50.3617 101.45 50.2284C102.122 50.1098 102.588 50.1739 102.848 50.4204C102.94 50.5125 102.996 50.6111 103.014 50.7161L104.792 60.8006ZM114.029 58.8794C113.755 59.1661 113.348 59.4382 112.808 59.6958C112.278 59.9411 111.566 60.1424 110.673 60.2998C109.79 60.4554 108.937 60.5301 108.113 60.5238C107.289 60.5175 106.687 60.4556 106.309 60.3382C105.931 60.2207 105.727 60.0779 105.698 59.9099C105.594 59.3216 105.57 58.6975 105.627 58.0376C105.682 57.3672 105.826 57.0116 106.057 56.9709C106.099 56.9634 106.56 57.0284 107.439 57.1657C108.319 57.303 108.969 57.3346 109.39 57.2605C109.81 57.1864 110.075 57.0962 110.187 56.99C110.296 56.8732 110.336 56.7308 110.306 56.5627C110.277 56.3946 110.135 56.2679 109.882 56.1826C109.627 56.0868 109.317 56.0222 108.954 55.9888C108.589 55.9449 108.185 55.8645 107.742 55.7476C107.309 55.6289 106.899 55.4846 106.512 55.3146C106.125 55.1447 105.778 54.8699 105.473 54.4905C105.166 54.1006 104.964 53.6325 104.868 53.0862C104.457 50.7542 105.643 49.3428 108.427 48.8519C109.467 48.6686 110.377 48.5785 111.157 48.5817C111.936 48.5744 112.492 48.6279 112.827 48.7423C113.17 48.8443 113.355 48.974 113.383 49.1316C113.479 49.6778 113.451 50.2893 113.3 50.9658C113.159 51.6406 112.968 51.9992 112.726 52.0418C112.684 52.0493 112.539 52.0261 112.291 51.9723C111.544 51.7899 110.94 51.7394 110.477 51.8209C110.026 51.9006 109.723 51.9972 109.57 52.1109C109.427 52.2227 109.372 52.3679 109.403 52.5465C109.433 52.7146 109.573 52.836 109.825 52.9108C110.074 52.9751 110.376 53.0249 110.729 53.0602C111.09 53.0831 111.487 53.1539 111.919 53.2726C112.361 53.3789 112.777 53.5276 113.168 53.7186C113.557 53.8991 113.907 54.1948 114.218 54.6057C114.529 55.0167 114.737 55.5215 114.842 56.1203C114.954 56.7506 114.892 57.3518 114.657 57.9239C114.513 58.2743 114.304 58.5928 114.029 58.8794ZM120.765 57.9842C120.785 58.0998 120.481 58.2508 119.854 58.4373C119.224 58.6133 118.583 58.7588 117.932 58.8736C117.291 58.9866 116.877 59.0326 116.689 59.0115C116.5 58.98 116.393 58.8959 116.369 58.7594L114.64 48.9586C114.6 48.7275 114.865 48.4479 115.435 48.1199C116.003 47.7813 116.666 47.5454 117.422 47.412C118.094 47.2935 118.561 47.3575 118.821 47.6041C118.913 47.6962 118.968 47.7947 118.987 47.8998L120.765 57.9842ZM127.449 57.3418C126.577 57.4955 125.812 57.5492 125.154 57.5027C124.504 57.4439 123.88 57.2508 123.281 56.9232C122.073 56.2804 121.262 54.7825 120.847 52.4295C120.673 51.442 120.663 50.5556 120.817 49.7703C120.982 48.9831 121.283 48.3288 121.722 47.8074C122.582 46.7892 123.816 46.1384 125.423 45.855C126.253 45.7087 126.986 45.6553 127.621 45.6949C128.267 45.7327 128.897 45.8978 129.512 46.1901C130.755 46.794 131.575 48.2199 131.972 50.4679C132.327 52.4848 132.091 54.0592 131.261 55.1911C130.432 56.323 129.161 57.0399 127.449 57.3418ZM126.454 54.739C126.606 54.8639 126.792 54.9068 127.013 54.8679C127.233 54.829 127.394 54.725 127.494 54.5557C127.592 54.3759 127.64 54.0317 127.637 53.5232C127.632 53.0041 127.55 52.2982 127.393 51.4053C127.236 50.5124 127.072 49.8317 126.903 49.3633C126.734 48.8949 126.573 48.5983 126.421 48.4735C126.269 48.3487 126.083 48.3057 125.862 48.3446C125.642 48.3835 125.481 48.4876 125.381 48.6569C125.281 48.8262 125.232 49.1598 125.233 49.6578C125.234 50.1559 125.313 50.8513 125.471 51.7442C125.628 52.6371 125.793 53.3283 125.966 53.8177C126.137 54.2966 126.3 54.6037 126.454 54.739ZM138.324 54.8069C138.348 54.9434 138.041 55.1112 137.405 55.31C136.779 55.5071 136.146 55.6621 135.505 55.7751C134.864 55.888 134.448 55.9235 134.256 55.8815C134.065 55.8394 133.955 55.7396 133.927 55.5821L132.221 45.9073C132.175 45.6447 132.432 45.3503 132.992 45.0241C133.562 44.6961 134.231 44.4645 134.998 44.3293C135.271 44.2811 135.477 44.2555 135.618 44.2524C135.984 44.242 136.276 44.4234 136.493 44.7966L138.723 48.5952L138.786 48.584L138.13 44.8654C138.084 44.6028 138.341 44.3084 138.901 43.9822C139.46 43.656 140.124 43.4254 140.891 43.2901C141.552 43.1734 141.995 43.2254 142.218 43.446C142.375 43.6024 142.467 43.7541 142.493 43.9012L144.232 53.765C144.256 53.9016 143.95 54.0693 143.314 54.2682C142.688 54.4652 141.986 54.6322 141.209 54.7693C140.442 54.9045 140.004 54.8788 139.896 54.6922L137.747 51.0744L137.668 51.0883L138.324 54.8069ZM149.895 52.7665C149.919 52.9031 149.613 53.0708 148.976 53.2697C148.35 53.4667 147.717 53.6217 147.076 53.7347C146.436 53.8477 146.019 53.8832 145.828 53.8411C145.636 53.7991 145.527 53.6993 145.499 53.5417L143.793 43.8669C143.747 43.6043 144.003 43.3099 144.563 42.9837C145.134 42.6557 145.802 42.4241 146.569 42.2889C146.842 42.2407 147.049 42.2151 147.189 42.212C147.556 42.2016 147.848 42.383 148.065 42.7562L150.294 46.5548L150.357 46.5437L149.702 42.825C149.655 42.5624 149.912 42.268 150.472 41.9419C151.032 41.6157 151.695 41.385 152.462 41.2498C153.124 41.1331 153.566 41.185 153.789 41.4057C153.947 41.562 154.039 41.7137 154.065 41.8608L155.804 51.7246C155.828 51.8612 155.522 52.0289 154.885 52.2278C154.259 52.4248 153.558 52.5919 152.78 52.7289C152.014 52.8641 151.576 52.8384 151.467 52.6518L149.318 49.034L149.239 49.0479L149.895 52.7665ZM165.14 50.5496L158.459 51.7277C157.944 51.8184 157.591 51.8428 157.399 51.8007C157.208 51.7587 157.098 51.6589 157.07 51.5013L155.312 41.5272C155.263 41.2541 155.35 41.0384 155.571 40.8803C155.803 40.7203 156.239 40.5838 156.88 40.4708L163.214 39.3539C163.435 39.315 163.61 39.6632 163.74 40.3985C163.867 41.1233 163.918 41.6884 163.892 42.0938C163.865 42.4886 163.772 42.6999 163.614 42.7277C162.931 42.8481 161.769 42.9826 160.127 43.1313L160.313 44.187C161.857 43.8499 162.865 43.6396 163.338 43.5563C163.622 43.5063 163.822 43.8121 163.938 44.4739C164.055 45.1357 164.086 45.6501 164.032 46.0172C163.986 46.3718 163.869 46.5658 163.68 46.5992L160.816 47.039L160.994 48.0475C162.798 47.5886 164.046 47.2981 164.74 47.1758C164.96 47.1369 165.135 47.4851 165.265 48.2205C165.395 48.9558 165.446 49.5209 165.418 49.9157C165.39 50.3105 165.297 50.5219 165.14 50.5496ZM169.195 49.8346C168.932 49.8809 168.549 49.9485 168.044 50.0374C167.551 50.1245 167.208 50.147 167.017 50.105C166.825 50.0629 166.715 49.9631 166.688 49.8055L164.934 39.8629C164.892 39.6213 165.179 39.3757 165.796 39.1262C166.421 38.8643 167.101 38.6685 167.837 38.5388C168.572 38.4092 169.114 38.4111 169.462 38.5446C169.811 38.6781 170.03 38.8453 170.119 39.0462L171.924 43.0171L172.066 42.992L172.374 38.8435C172.398 38.5469 172.696 38.2398 173.268 37.9223C173.849 37.5924 174.507 37.3627 175.242 37.233C175.978 37.1034 176.529 37.0657 176.896 37.1202C177.273 37.1727 177.478 37.2883 177.509 37.4669L179.293 47.5828C179.317 47.7194 179.037 47.8825 178.453 48.0721C177.869 48.2617 177.147 48.4325 176.285 48.5844C175.424 48.7362 174.966 48.6599 174.913 48.3552C174.766 47.5254 174.595 46.0337 174.4 43.8803L174.258 43.9053L174.164 48.1623C174.16 48.3255 174.049 48.4642 173.831 48.5784C173.623 48.6909 173.294 48.7869 172.842 48.8666C172.39 48.9462 172.106 48.9638 171.99 48.9193C171.885 48.8729 171.8 48.7632 171.737 48.5902L170.161 44.6277L170.019 44.6527C170.59 46.7833 170.945 48.2425 171.084 49.0304C171.132 49.3035 170.502 49.5716 169.195 49.8346ZM188.621 46.4092L181.94 47.5872C181.426 47.678 181.072 47.7024 180.881 47.6603C180.689 47.6183 180.58 47.5185 180.552 47.3609L178.793 37.3868C178.745 37.1136 178.832 36.898 179.053 36.7399C179.284 36.5798 179.721 36.4434 180.362 36.3304L186.696 35.2135C186.916 35.1746 187.092 35.5228 187.221 36.2581C187.349 36.9829 187.4 37.548 187.374 37.9533C187.346 38.3482 187.253 38.5595 187.096 38.5873C186.413 38.7077 185.251 38.8422 183.609 38.9909L183.795 40.0466C185.339 39.7094 186.347 39.4992 186.819 39.4158C187.103 39.3658 187.303 39.6717 187.42 40.3335C187.537 40.9953 187.568 41.5097 187.513 41.8767C187.468 42.2314 187.35 42.4254 187.161 42.4588L184.298 42.8986L184.476 43.9071C186.279 43.4482 187.528 43.1577 188.221 43.0354C188.442 42.9965 188.617 43.3447 188.747 44.08C188.876 44.8154 188.927 45.3804 188.899 45.7753C188.871 46.1701 188.779 46.3814 188.621 46.4092ZM194.565 44.8899C194.589 45.0265 194.283 45.1942 193.647 45.3931C193.021 45.5901 192.387 45.7451 191.747 45.8581C191.106 45.9711 190.69 46.0066 190.498 45.9645C190.307 45.9225 190.197 45.8227 190.169 45.6651L188.463 35.9904C188.417 35.7277 188.674 35.4334 189.234 35.1072C189.804 34.7791 190.473 34.5475 191.239 34.4123C191.512 34.3642 191.719 34.3385 191.859 34.3355C192.226 34.325 192.518 34.5064 192.735 34.8797L194.965 38.6782L195.028 38.6671L194.372 34.9485C194.326 34.6859 194.583 34.3915 195.142 34.0653C195.702 33.7391 196.366 33.5084 197.132 33.3732C197.794 33.2565 198.237 33.3085 198.46 33.5291C198.617 33.6855 198.709 33.8372 198.735 33.9842L200.474 43.8481C200.498 43.9846 200.192 44.1523 199.556 44.3512C198.93 44.5482 198.228 44.7153 197.451 44.8523C196.684 44.9876 196.246 44.9619 196.137 44.7752L193.988 41.1574L193.91 41.1713L194.565 44.8899ZM208.451 42.5227C208.472 42.6383 208.163 42.7902 207.524 42.9786C206.895 43.1546 206.254 43.3 205.603 43.4149C204.962 43.5279 204.548 43.5739 204.36 43.5528C204.181 43.5194 204.079 43.4344 204.055 43.2979L202.86 36.5224L200.67 36.9086C200.555 36.929 200.429 36.7995 200.293 36.5202C200.157 36.2409 200.038 35.8124 199.936 35.2346C199.833 34.6463 199.803 34.11 199.848 33.6256C199.89 33.1306 200.017 32.8646 200.227 32.8276L208.751 31.3245C208.909 31.2967 209.04 31.4253 209.144 31.7101C209.259 31.9931 209.366 32.413 209.464 32.9698C209.562 33.5265 209.597 34.0619 209.568 34.576C209.54 35.0901 209.426 35.3648 209.226 35.3999L207.256 35.7472L208.451 42.5227Z" fill="#C42F2F" fill-opacity="0.79"/>
</g>
<defs>
<filter id="filter0_di_130_3949" x="0.374023" y="2.51904" width="227.144" height="93.3014" filterUnits="userSpaceOnUse" color-interpolation-filters="sRGB">
<feFlood flood-opacity="0" result="BackgroundImageFix"/>
<feColorMatrix in="SourceAlpha" type="matrix" values="0 0 0 0 0 0 0 0 0 0 0 0 0 0 0 0 0 0 127 0" result="hardAlpha"/>
<feOffset dy="4"/>
<feGaussianBlur stdDeviation="2"/>
<feComposite in2="hardAlpha" operator="out"/>
<feColorMatrix type="matrix" values="0 0 0 0 0 0 0 0 0 0 0 0 0 0 0 0 0 0 0.25 0"/>
<feBlend mode="normal" in2="BackgroundImageFix" result="effect1_dropShadow_130_3949"/>
<feBlend mode="normal" in="SourceGraphic" in2="effect1_dropShadow_130_3949" result="shape"/>
<feColorMatrix in="SourceAlpha" type="matrix" values="0 0 0 0 0 0 0 0 0 0 0 0 0 0 0 0 0 0 127 0" result="hardAlpha"/>
<feOffset dy="4"/>
<feGaussianBlur stdDeviation="2"/>
<feComposite in2="hardAlpha" operator="arithmetic" k2="-1" k3="1"/>
<feColorMatrix type="matrix" values="0 0 0 0 0 0 0 0 0 0 0 0 0 0 0 0 0 0 0.25 0"/>
<feBlend mode="normal" in2="shape" result="effect2_innerShadow_130_3949"/>
</filter>
<filter id="filter1_i_130_3949" x="17.4297" y="13.3682" width="193.729" height="66.4647" filterUnits="userSpaceOnUse" color-interpolation-filters="sRGB">
<feFlood flood-opacity="0" result="BackgroundImageFix"/>
<feBlend mode="normal" in="SourceGraphic" in2="BackgroundImageFix" result="shape"/>
<feColorMatrix in="SourceAlpha" type="matrix" values="0 0 0 0 0 0 0 0 0 0 0 0 0 0 0 0 0 0 127 0" result="hardAlpha"/>
<feOffset dy="4"/>
<feGaussianBlur stdDeviation="2"/>
<feComposite in2="hardAlpha" operator="arithmetic" k2="-1" k3="1"/>
<feColorMatrix type="matrix" values="0 0 0 0 0 0 0 0 0 0 0 0 0 0 0 0 0 0 0.25 0"/>
<feBlend mode="normal" in2="shape" result="effect1_innerShadow_130_3949"/>
</filter>
</defs>
</svg>
